REM DIRINDEX 1\6,1\2\7,1\2\8,1\2\9,1\3\10,1\3\11,1\4\12,1\4\13,1\4\14,1\5\15,1\5\16,1\5\17
REM DIRNAME cjc041,folder01,folder02,folder03,folder04,folder05,folder06,folder07,folder08,folder09,folder10,folder11,folder12,folder13,folder14,folder15,folder16
TITLE ""
FILE "3Q_k_085-096.mp3" MP3
  TRACK 01 AUDIO
    TITLE "15:cjc041_1540"
    INDEX 01 00:00:00
  TRACK 02 AUDIO
    TITLE "0:"
    INDEX 01 00:01:34
  TRACK 03 AUDIO
    TITLE "16:cjc041_1541"
    INDEX 01 00:02:08
  TRACK 04 AUDIO
    TITLE "0:"
    INDEX 01 00:04:72
  TRACK 05 AUDIO
    TITLE "17:cjc041_1542"
    INDEX 01 00:05:57
  TRACK 06 AUDIO
    TITLE "17:cjc041_1543"
    INDEX 01 00:11:54
  TRACK 07 AUDIO
    TITLE "0:"
    INDEX 01 00:14:13
  TRACK 08 AUDIO
    TITLE "15:cjc041_1544"
    INDEX 01 00:14:68
  TRACK 09 AUDIO
    TITLE "0:"
    INDEX 01 00:16:67
  TRACK 10 AUDIO
    TITLE "16:cjc041_1545"
    INDEX 01 00:17:53
  TRACK 11 AUDIO
    TITLE "0:"
    INDEX 01 00:20:28
  TRACK 12 AUDIO
    TITLE "17:cjc041_1546"
    INDEX 01 00:21:02
  TRACK 13 AUDIO
    TITLE "17:cjc041_1547"
    INDEX 01 00:23:22
  TRACK 14 AUDIO
    TITLE "0:"
    INDEX 01 00:26:46
  TRACK 15 AUDIO
    TITLE "15:cjc041_1548"
    INDEX 01 00:27:30
  TRACK 16 AUDIO
    TITLE "0:"
    INDEX 01 00:28:64
  TRACK 17 AUDIO
    TITLE "16:cjc041_1549"
    INDEX 01 00:29:50
  TRACK 18 AUDIO
    TITLE "0:"
    INDEX 01 00:31:47
  TRACK 19 AUDIO
    TITLE "17:cjc041_1550"
    INDEX 01 00:32:25
  TRACK 20 AUDIO
    TITLE "17:cjc041_1551"
    INDEX 01 00:34:22
  TRACK 21 AUDIO
    TITLE "0:"
    INDEX 01 00:36:25
  TRACK 22 AUDIO
    TITLE "15:cjc041_1552"
    INDEX 01 00:37:05
  TRACK 23 AUDIO
    TITLE "0:"
    INDEX 01 00:38:51
  TRACK 24 AUDIO
    TITLE "16:cjc041_1553"
    INDEX 01 00:39:35
  TRACK 25 AUDIO
    TITLE "0:"
    INDEX 01 00:41:30
  TRACK 26 AUDIO
    TITLE "17:cjc041_1554"
    INDEX 01 00:42:14
  TRACK 27 AUDIO
    TITLE "17:cjc041_1555"
    INDEX 01 00:44:14
  TRACK 28 AUDIO
    TITLE "0:"
    INDEX 01 00:46:25
  TRACK 29 AUDIO
    TITLE "15:cjc041_1556"
    INDEX 01 00:47:07
  TRACK 30 AUDIO
    TITLE "0:"
    INDEX 01 00:48:73
  TRACK 31 AUDIO
    TITLE "16:cjc041_1557"
    INDEX 01 00:49:61
  TRACK 32 AUDIO
    TITLE "0:"
    INDEX 01 00:52:16
  TRACK 33 AUDIO
    TITLE "17:cjc041_1558"
    INDEX 01 00:53:00
  TRACK 34 AUDIO
    TITLE "17:cjc041_1559"
    INDEX 01 00:55:04
  TRACK 35 AUDIO
    TITLE "0:"
    INDEX 01 00:58:01
  TRACK 36 AUDIO
    TITLE "15:cjc041_1560"
    INDEX 01 00:58:58
  TRACK 37 AUDIO
    TITLE "0:"
    INDEX 01 01:00:41
  TRACK 38 AUDIO
    TITLE "16:cjc041_1561"
    INDEX 01 01:01:27
  TRACK 39 AUDIO
    TITLE "0:"
    INDEX 01 01:03:02
  TRACK 40 AUDIO
    TITLE "17:cjc041_1562"
    INDEX 01 01:03:55
  TRACK 41 AUDIO
    TITLE "17:cjc041_1563"
    INDEX 01 01:07:21
  TRACK 42 AUDIO
    TITLE "0:"
    INDEX 01 01:10:24
  TRACK 43 AUDIO
    TITLE "15:cjc041_1564"
    INDEX 01 01:11:03
  TRACK 44 AUDIO
    TITLE "0:"
    INDEX 01 01:12:19
  TRACK 45 AUDIO
    TITLE "16:cjc041_1565"
    INDEX 01 01:13:04
  TRACK 46 AUDIO
    TITLE "0:"
    INDEX 01 01:15:56
  TRACK 47 AUDIO
    TITLE "17:cjc041_1566"
    INDEX 01 01:16:32
  TRACK 48 AUDIO
    TITLE "17:cjc041_1567"
    INDEX 01 01:18:74
  TRACK 49 AUDIO
    TITLE "0:"
    INDEX 01 01:20:53
  TRACK 50 AUDIO
    TITLE "15:cjc041_1568"
    INDEX 01 01:21:39
  TRACK 51 AUDIO
    TITLE "0:"
    INDEX 01 01:23:15
  TRACK 52 AUDIO
    TITLE "16:cjc041_1569"
    INDEX 01 01:24:04
  TRACK 53 AUDIO
    TITLE "0:"
    INDEX 01 01:26:54
  TRACK 54 AUDIO
    TITLE "17:cjc041_1570"
    INDEX 01 01:27:30
  TRACK 55 AUDIO
    TITLE "17:cjc041_1571"
    INDEX 01 01:31:45
  TRACK 56 AUDIO
    TITLE "0:"
    INDEX 01 01:33:72
  TRACK 57 AUDIO
    TITLE "15:cjc041_1572"
    INDEX 01 01:34:57
  TRACK 58 AUDIO
    TITLE "0:"
    INDEX 01 01:36:23
  TRACK 59 AUDIO
    TITLE "16:cjc041_1573"
    INDEX 01 01:37:01
  TRACK 60 AUDIO
    TITLE "0:"
    INDEX 01 01:39:61
  TRACK 61 AUDIO
    TITLE "17:cjc041_1574"
    INDEX 01 01:40:35
  TRACK 62 AUDIO
    TITLE "17:cjc041_1575"
    INDEX 01 01:43:23
  TRACK 63 AUDIO
    TITLE "0:"
    INDEX 01 01:44:73
  TRACK 64 AUDIO
    TITLE "15:cjc041_1576"
    INDEX 01 01:45:49
  TRACK 65 AUDIO
    TITLE "0:"
    INDEX 01 01:47:23
  TRACK 66 AUDIO
    TITLE "16:cjc041_1577"
    INDEX 01 01:48:05
  TRACK 67 AUDIO
    TITLE "0:"
    INDEX 01 01:50:31
  TRACK 68 AUDIO
    TITLE "17:cjc041_1578"
    INDEX 01 01:51:11
  TRACK 69 AUDIO
    TITLE "17:cjc041_1579"
    INDEX 01 01:54:74
  TRACK 70 AUDIO
    TITLE "0:"
    INDEX 01 01:58:44
  TRACK 71 AUDIO
    TITLE "15:cjc041_1580"
    INDEX 01 01:59:26
  TRACK 72 AUDIO
    TITLE "0:"
    INDEX 01 02:00:47
  TRACK 73 AUDIO
    TITLE "16:cjc041_1581"
    INDEX 01 02:01:35
  TRACK 74 AUDIO
    TITLE "0:"
    INDEX 01 02:08:62
  TRACK 75 AUDIO
    TITLE "17:cjc041_1582"
    INDEX 01 02:09:40
  TRACK 76 AUDIO
    TITLE "17:cjc041_1583"
    INDEX 01 02:12:54
  TRACK 77 AUDIO
    TITLE "0:"
    INDEX 01 02:14:06
  TRACK 78 AUDIO
    TITLE "15:cjc041_1584"
    INDEX 01 02:14:53
  TRACK 79 AUDIO
    TITLE "0:"
    INDEX 01 02:16:44
  TRACK 80 AUDIO
    TITLE "16:cjc041_1585"
    INDEX 01 02:17:18
  TRACK 81 AUDIO
    TITLE "0:"
    INDEX 01 02:21:39
  TRACK 82 AUDIO
    TITLE "17:cjc041_1586"
    INDEX 01 02:22:19
  TRACK 83 AUDIO
    TITLE "17:cjc041_1587"
    INDEX 01 02:24:69
  TRACK 84 AUDIO
    TITLE "0:"
    INDEX 01 02:26:42
